<svg xmlns="http://www.w3.org/2000/svg" width="100%" height="100%" viewBox="0 0 1200 400"><defs><linearGradient id="bg-grad" x1="0%" x2="100%" y1="0%" y2="100%"><stop offset="0%" stop-color="#0f172a"/><stop offset="50%" stop-color="#1e1b4b"/><stop offset="100%" stop-color="#311042"/></linearGradient><linearGradient id="accent-grad" x1="0%" x2="100%" y1="0%" y2="0%"><stop offset="0%" stop-color="#38bdf8"/><stop offset="50%" stop-color="#818cf8"/><stop offset="100%" stop-color="#c084fc"/></linearGradient><linearGradient id="glow-grad" x1="0%" x2="100%" y1="0%" y2="100%"><stop offset="0%" stop-color="#38bdf8" stop-opacity=".4"/><stop offset="100%" stop-color="#c084fc" stop-opacity="0"/></linearGradient><filter id="glow" width="140%" height="140%" x="-20%" y="-20%"><feGaussianBlur result="blur" stdDeviation="8"/><feComposite in="SourceGraphic" in2="blur" operator="over"/></filter><style>@keyframes pulse{0%{transform:scale(1);opacity:.6}50%{transform:scale(1.15);opacity:.9}}@keyframes float{0%{transform:translateY(0)}50%{transform:translateY(-10px)}}.subtitle,.tag,.title{font-family:&apos;Segoe UI&apos;,system-ui,-apple-system,sans-serif}.title{font-weight:800;font-size:54px;fill:#fff}.subtitle{font-weight:500;font-size:24px;fill:#94a3b8}.tag{font-weight:600;font-size:16px;fill:#38bdf8}.pulse-circle{animation:pulse 3s infinite ease-in-out}.wave-line{stroke-dasharray:1000;stroke-dashoffset:1000;animation:dash 5s linear infinite}</style></defs><rect width="1200" height="400" fill="url(#bg-grad)" rx="16"/><g opacity=".15"><circle cx="150" cy="100" r="250" fill="url(#glow-grad)"/><circle cx="1050" cy="300" r="300" fill="url(#glow-grad)"/><path stroke="#fff" stroke-width=".5" d="M0 80 H1200 M0 160 H1200 M0 240 H1200 M0 320 H1200"/><path stroke="#fff" stroke-width=".5" d="M200 0 V400 M400 0 V400 M600 0 V400 M800 0 V400 M1000 0 V400"/></g><g transform="translate(100, 150)"><rect width="80" height="10" x="20" y="45" fill="url(#accent-grad)" rx="5"/><rect width="12" height="50" x="10" y="25" fill="#38bdf8" rx="4"/><rect width="10" height="70" x="0" y="15" fill="#818cf8" rx="4"/><rect width="12" height="50" x="98" y="25" fill="#38bdf8" rx="4"/><rect width="10" height="70" x="110" y="15" fill="#818cf8" rx="4"/><circle cx="60" cy="50" r="45" fill="none" stroke="url(#accent-grad)" stroke-width="2" class="pulse-circle" opacity=".4"/></g><path fill="none" stroke="url(#accent-grad)" stroke-linecap="round" stroke-linejoin="round" stroke-width="4" d="M 250 200 L 320 200 L 340 140 L 360 250 L 385 110 L 410 230 L 430 180 L 450 200 L 550 200" class="wave-line" filter="url(#glow)"/><g><text x="0" y="0" class="tag" letter-spacing="3" transform="translate(260, 130)">CURATED ECOSYSTEM &amp; PLATFORM DIRECTORY</text><text x="0" y="55" class="title" transform="translate(260, 130)">Awesome Personal Trainer Platform</text><text x="0" y="95" class="subtitle" transform="translate(260, 130)">SaaS Products • Open-Source Repos • Coaching CRMs • Fitness APIs</text></g><g><g transform="translate(260, 275) translate(0, 0)"><rect width="180" height="38" fill="#1e293b" stroke="#334155" stroke-width="1.5" rx="19"/><circle cx="20" cy="19" r="6" fill="#38bdf8"/><text x="36" y="24" fill="#e2e8f0" font-family="Segoe UI, sans-serif" font-size="14" font-weight="600">10+ SaaS Leader Metrics</text></g><g transform="translate(260, 275) translate(200, 0)"><rect width="180" height="38" fill="#1e293b" stroke="#334155" stroke-width="1.5" rx="19"/><circle cx="20" cy="19" r="6" fill="#818cf8"/><text x="36" y="24" fill="#e2e8f0" font-family="Segoe UI, sans-serif" font-size="14" font-weight="600">Open-Source Repos</text></g><g transform="translate(260, 275) translate(400, 0)"><rect width="210" height="38" fill="#1e293b" stroke="#334155" stroke-width="1.5" rx="19"/><circle cx="20" cy="19" r="6" fill="#c084fc"/><text x="36" y="24" fill="#e2e8f0" font-family="Segoe UI, sans-serif" font-size="14" font-weight="600">Market Size &amp; Pricing Analysis</text></g></g></svg>